{
    "asset" : {
        "generator" : "Khronos glTF Blender I/O v1.5.17",
        "version" : "2.0"
    },
    "scene" : 0,
    "scenes" : [
        {
            "name" : "Scene",
            "nodes" : [
                0,
                1,
                2,
                3,
                4,
                5,
                6,
                7,
                8
            ]
        }
    ],
    "nodes" : [
        {
            "name" : "Light",
            "rotation" : [
                0.16907575726509094,
                0.7558803558349609,
                -0.27217137813568115,
                0.570947527885437
            ],
            "scale" : [
                1.0009708404541016,
                1.1843690872192383,
                1.1104320287704468
            ],
            "translation" : [
                -0.053455352783203125,
                7.676745414733887,
                -1.8476829528808594
            ]
        },
        {
            "name" : "Camera",
            "rotation" : [
                0.483536034822464,
                0.33687159419059753,
                -0.20870360732078552,
                0.7804827094078064
            ],
            "translation" : [
                7.358891487121582,
                4.958309173583984,
                6.925790786743164
            ]
        },
        {
            "mesh" : 0,
            "name" : "P2",
            "rotation" : [
                0,
                0,
                -0.707073986530304,
                0.7071396112442017
            ],
            "scale" : [
                0.05289456620812416,
                1.2840325832366943,
                0.041410524398088455
            ],
            "translation" : [
                0.03343619778752327,
                0.5702903270721436,
                0.9445656538009644
            ]
        },
        {
            "name" : "Light.001",
            "rotation" : [
                0.16907575726509094,
                0.7558804154396057,
                -0.27217137813568115,
                0.5709474086761475
            ],
            "translation" : [
                4.076245307922363,
                5.903861999511719,
                -1.0054539442062378
            ]
        },
        {
            "name" : "Camera.001",
            "rotation" : [
                0.4835360646247864,
                0.33687159419059753,
                -0.20870354771614075,
                0.7804827094078064
            ],
            "translation" : [
                7.358891487121582,
                4.958309173583984,
                6.925790786743164
            ]
        },
        {
            "mesh" : 1,
            "name" : "Cube",
            "rotation" : [
                0,
                -1,
                0,
                -1.235804234056559e-06
            ],
            "scale" : [
                1.6515766382217407,
                1.6515766382217407,
                1.6515766382217407
            ],
            "translation" : [
                0,
                0.9913238286972046,
                1.7764530181884766
            ]
        },
        {
            "name" : "Light.002",
            "rotation" : [
                0.16907575726509094,
                0.7558804154396057,
                -0.27217137813568115,
                0.5709474086761475
            ],
            "translation" : [
                4.076245307922363,
                5.903861999511719,
                -1.0054539442062378
            ]
        },
        {
            "name" : "Camera.002",
            "rotation" : [
                0.4835360646247864,
                0.33687159419059753,
                -0.20870354771614075,
                0.7804827094078064
            ],
            "translation" : [
                7.358891487121582,
                4.958309173583984,
                6.925790786743164
            ]
        },
        {
            "mesh" : 2,
            "name" : "Cube.001",
            "scale" : [
                1.1688114404678345,
                0.9754824042320251,
                0.11097130924463272
            ],
            "translation" : [
                0,
                3.9832260608673096,
                3.264587879180908
            ]
        }
    ],
    "materials" : [
        {
            "doubleSided" : true,
            "name" : "KioskChair",
            "pbrMetallicRoughness" : {
                "baseColorTexture" : {
                    "index" : 0
                },
                "metallicFactor" : 0,
                "roughnessFactor" : 0.5
            }
        },
        {
            "doubleSided" : true,
            "name" : "Material.001",
            "pbrMetallicRoughness" : {
                "baseColorTexture" : {
                    "index" : 1
                },
                "metallicFactor" : 0,
                "roughnessFactor" : 0.5
            }
        },
        {
            "doubleSided" : true,
            "name" : "TrapperKeeper",
            "pbrMetallicRoughness" : {
                "baseColorTexture" : {
                    "index" : 2
                },
                "metallicFactor" : 0,
                "roughnessFactor" : 0.5
            }
        }
    ],
    "meshes" : [
        {
            "name" : "Cylinder.007",
            "primitives" : [
                {
                    "attributes" : {
                        "POSITION" : 0,
                        "NORMAL" : 1,
                        "TEXCOORD_0" : 2
                    },
                    "indices" : 3,
                    "material" : 0
                }
            ]
        },
        {
            "name" : "Cube.002",
            "primitives" : [
                {
                    "attributes" : {
                        "POSITION" : 4,
                        "NORMAL" : 5,
                        "TEXCOORD_0" : 6
                    },
                    "indices" : 7,
                    "material" : 1
                }
            ]
        },
        {
            "name" : "Cube.003",
            "primitives" : [
                {
                    "attributes" : {
                        "POSITION" : 8,
                        "NORMAL" : 9,
                        "TEXCOORD_0" : 10
                    },
                    "indices" : 11,
                    "material" : 2
                }
            ]
        }
    ],
    "textures" : [
        {
            "sampler" : 0,
            "source" : 0
        },
        {
            "sampler" : 0,
            "source" : 1
        },
        {
            "sampler" : 0,
            "source" : 2
        }
    ],
    "images" : [
        {
            "bufferView" : 4,
            "mimeType" : "image/png",
            "name" : "KioskChair_Textures___color"
        },
        {
            "bufferView" : 9,
            "mimeType" : "image/png",
            "name" : "Kiosk_Textures__color"
        },
        {
            "bufferView" : 14,
            "mimeType" : "image/png",
            "name" : "TrapperKeeper_Textures___color"
        }
    ],
    "accessors" : [
        {
            "bufferView" : 0,
            "componentType" : 5126,
            "count" : 1520,
            "max" : [
                17.723743438720703,
                0.7271143794059753,
                28.01300621032715
            ],
            "min" : [
                -79.5042724609375,
                -0.7694403529167175,
                -45.06499481201172
            ],
            "type" : "VEC3"
        },
        {
            "bufferView" : 1,
            "componentType" : 5126,
            "count" : 1520,
            "type" : "VEC3"
        },
        {
            "bufferView" : 2,
            "componentType" : 5126,
            "count" : 1520,
            "type" : "VEC2"
        },
        {
            "bufferView" : 3,
            "componentType" : 5123,
            "count" : 3132,
            "type" : "SCALAR"
        },
        {
            "bufferView" : 5,
            "componentType" : 5126,
            "count" : 111,
            "max" : [
                1,
                4.000406265258789,
                2.98264741897583
            ],
            "min" : [
                -1,
                -1.0000001192092896,
                -1
            ],
            "type" : "VEC3"
        },
        {
            "bufferView" : 6,
            "componentType" : 5126,
            "count" : 111,
            "type" : "VEC3"
        },
        {
            "bufferView" : 7,
            "componentType" : 5126,
            "count" : 111,
            "type" : "VEC2"
        },
        {
            "bufferView" : 8,
            "componentType" : 5123,
            "count" : 312,
            "type" : "SCALAR"
        },
        {
            "bufferView" : 10,
            "componentType" : 5126,
            "count" : 210,
            "max" : [
                1,
                1,
                -0.018592000007629395
            ],
            "min" : [
                -1,
                -1,
                -12.600834846496582
            ],
            "type" : "VEC3"
        },
        {
            "bufferView" : 11,
            "componentType" : 5126,
            "count" : 210,
            "type" : "VEC3"
        },
        {
            "bufferView" : 12,
            "componentType" : 5126,
            "count" : 210,
            "type" : "VEC2"
        },
        {
            "bufferView" : 13,
            "componentType" : 5123,
            "count" : 648,
            "type" : "SCALAR"
        }
    ],
    "bufferViews" : [
        {
            "buffer" : 0,
            "byteLength" : 18240,
            "byteOffset" : 0
        },
        {
            "buffer" : 0,
            "byteLength" : 18240,
            "byteOffset" : 18240
        },
        {
            "buffer" : 0,
            "byteLength" : 12160,
            "byteOffset" : 36480
        },
        {
            "buffer" : 0,
            "byteLength" : 6264,
            "byteOffset" : 48640
        },
        {
            "buffer" : 0,
            "byteLength" : 124146,
            "byteOffset" : 54904
        },
        {
            "buffer" : 0,
            "byteLength" : 1332,
            "byteOffset" : 179052
        },
        {
            "buffer" : 0,
            "byteLength" : 1332,
            "byteOffset" : 180384
        },
        {
            "buffer" : 0,
            "byteLength" : 888,
            "byteOffset" : 181716
        },
        {
            "buffer" : 0,
            "byteLength" : 624,
            "byteOffset" : 182604
        },
        {
            "buffer" : 0,
            "byteLength" : 107643,
            "byteOffset" : 183228
        },
        {
            "buffer" : 0,
            "byteLength" : 2520,
            "byteOffset" : 290872
        },
        {
            "buffer" : 0,
            "byteLength" : 2520,
            "byteOffset" : 293392
        },
        {
            "buffer" : 0,
            "byteLength" : 1680,
            "byteOffset" : 295912
        },
        {
            "buffer" : 0,
            "byteLength" : 1296,
            "byteOffset" : 297592
        },
        {
            "buffer" : 0,
            "byteLength" : 48411,
            "byteOffset" : 298888
        }
    ],
    "samplers" : [
        {
            "magFilter" : 9729,
            "minFilter" : 9987
        }
    ],
    "buffers" : [
        {
            "byteLength" : 347300,
            "uri" : "data:application/octet-stream;base64,"
        }
    ]
}
